<svg width="24" height="24" viewBox="0 0 24 24" fill="none" xmlns="http://www.w3.org/2000/svg">
<path d="M12.225 12.1649C10.869 12.1649 9.35299 12.0149 8.38499 10.9089C7.57099 9.97891 7.30799 8.54091 7.57999 6.51691C7.95999 3.69091 9.69599 2.00391 12.226 2.00391C14.756 2.00391 16.493 3.69091 16.872 6.51691C17.144 8.54091 16.88 9.97691 16.066 10.9089C15.096 12.0149 13.581 12.1639 12.226 12.1639L12.225 12.1649ZM18.074 22.0149H6.37599C5.71299 22.0149 5.12599 21.7349 4.72599 21.2289C4.30399 20.6949 4.14999 19.9589 4.31599 19.2609C5.14999 15.7309 8.40199 13.2639 12.224 13.2639C16.046 13.2639 19.298 15.7299 20.134 19.2609C20.298 19.9589 20.144 20.6949 19.722 21.2279C19.322 21.7329 18.737 22.0129 18.074 22.0129V22.0149Z" fill="#FF6600"/>
</svg>

